<?xml version="1.0" standalone="no"?>
<!DOCTYPE svg PUBLIC "-//W3C//DTD SVG 20010904//EN"
 "http://www.w3.org/TR/2001/REC-SVG-20010904/DTD/svg10.dtd">
<svg version="1.0" xmlns="http://www.w3.org/2000/svg"
 width="512.000000pt" height="512.000000pt" viewBox="0 0 512.000000 512.000000"
 preserveAspectRatio="xMidYMid meet">
<metadata>
Created by potrace 1.11, written by Peter Selinger 2001-2013
</metadata>
<g transform="translate(0.000000,512.000000) scale(0.100000,-0.100000)"
fill="#000000" stroke="none">
<path d="M314 4825 c-82 -18 -129 -44 -187 -102 -62 -61 -92 -113 -112 -190
-14 -53 -15 -153 -13 -779 l3 -719 24 -60 c34 -84 142 -192 226 -226 l60 -24
783 -3 c737 -2 784 -4 777 -20 -19 -46 -56 -214 -66 -295 -20 -165 5 -367 70
-559 101 -298 349 -581 637 -726 86 -43 249 -98 352 -119 104 -20 345 -23 442
-4 102 19 257 69 353 114 l88 40 417 -415 c268 -267 432 -423 459 -437 90 -45
220 -44 311 3 116 60 193 203 177 331 -12 102 -43 147 -233 339 -97 98 -191
184 -207 191 -65 28 -130 -15 -130 -86 0 -37 8 -47 171 -212 94 -94 179 -183
188 -197 22 -33 21 -107 -3 -146 -35 -58 -120 -80 -184 -48 -29 15 -797 771
-797 785 0 4 43 50 95 104 166 170 280 367 334 577 57 220 58 449 4 665 l-29
111 241 4 c217 3 245 6 293 25 102 41 194 132 235 233 l22 55 0 745 0 745 -22
55 c-44 107 -148 205 -252 238 -52 16 -164 17 -1628 17 l-1573 0 -27 -27 c-38
-39 -38 -97 0 -136 l27 -27 1573 -5 c1722 -5 1598 -1 1653 -62 56 -61 54 -27
54 -798 0 -635 -2 -714 -16 -743 -23 -45 -53 -76 -96 -98 -34 -17 -62 -19
-310 -19 l-273 0 -29 51 c-47 84 -171 225 -271 307 -89 75 -245 168 -347 208
-27 11 -48 22 -48 26 0 19 143 297 150 293 5 -3 50 -85 101 -181 81 -157 95
-178 126 -190 66 -28 98 -4 161 121 98 194 222 470 222 493 0 14 -15 39 -35
59 -31 31 -40 35 -72 30 -19 -4 -43 -13 -53 -22 -10 -9 -55 -94 -101 -190 -46
-96 -87 -175 -91 -175 -4 0 -46 77 -94 170 -110 217 -144 248 -219 202 -24
-15 -48 -56 -114 -195 -46 -98 -87 -177 -90 -177 -3 0 -49 82 -101 182 -79
150 -100 183 -126 196 -39 18 -77 10 -110 -23 -43 -43 -34 -73 86 -306 61
-117 110 -218 110 -224 0 -7 -26 -8 -82 -4 -97 8 -285 -5 -378 -25 -36 -8 -67
-12 -69 -10 -3 3 12 39 33 82 110 219 186 394 186 426 0 53 -37 91 -88 91 -29
0 -48 -7 -66 -24 -13 -12 -59 -99 -103 -192 -43 -93 -81 -169 -85 -169 -4 0
-47 78 -97 173 -50 95 -100 182 -112 192 -28 26 -91 26 -119 0 -12 -11 -59
-97 -105 -192 -46 -95 -86 -173 -89 -173 -3 0 -44 75 -92 168 -48 92 -96 177
-107 189 -57 64 -163 17 -160 -71 1 -27 165 -359 265 -535 41 -71 82 -90 136
-64 34 16 45 35 125 197 50 103 91 176 96 170 13 -14 184 -345 180 -348 -2 -1
-35 -20 -74 -41 -165 -89 -334 -243 -443 -403 l-63 -92 -810 0 c-776 0 -811 1
-847 19 -43 22 -73 53 -96 98 -14 29 -16 108 -16 743 0 679 1 712 19 748 24
47 56 77 103 97 30 12 82 15 267 15 126 0 241 4 255 10 14 5 35 24 46 42 25
41 20 83 -15 118 l-25 25 -238 2 c-170 1 -254 -2 -298 -12z m3029 -1469 c271
-62 521 -236 678 -474 73 -112 117 -211 151 -350 32 -126 32 -378 0 -504 -33
-134 -76 -234 -143 -337 -209 -323 -548 -510 -925 -511 -292 0 -544 99 -755
298 -180 169 -284 359 -334 611 -25 123 -16 343 18 466 57 203 134 340 275
487 164 171 367 280 597 323 99 18 339 13 438 -9z"/>
<path d="M2980 3150 c-72 -11 -212 -56 -275 -87 -82 -42 -166 -106 -245 -189
-262 -276 -311 -687 -123 -1024 66 -118 215 -267 333 -333 269 -150 592 -150
860 0 121 68 279 226 336 338 163 314 144 655 -51 930 -49 69 -159 177 -228
224 -161 110 -422 171 -607 141z m275 -205 c33 -8 103 -36 155 -62 128 -63
226 -159 293 -289 57 -113 77 -191 77 -314 0 -123 -20 -205 -75 -308 -57 -106
-92 -151 -174 -219 -194 -160 -478 -199 -710 -97 -60 27 -170 105 -217 156
-55 58 -130 183 -155 259 -21 64 -24 92 -24 214 1 120 4 149 23 205 61 173
187 317 343 394 52 25 119 52 149 60 74 20 241 20 315 1z"/>
<path d="M3065 2721 c-37 -16 -58 -49 -58 -92 0 -61 32 -87 118 -100 76 -10
118 -32 165 -85 38 -44 49 -71 60 -147 10 -67 22 -84 68 -104 30 -12 38 -12
70 4 55 27 66 58 53 146 -6 40 -25 99 -41 132 -29 59 -106 146 -165 185 -71
47 -223 81 -270 61z"/>
<path d="M1234 4833 c-67 -12 -92 -110 -41 -160 61 -61 157 -20 157 67 0 63
-52 105 -116 93z"/>
<path d="M468 4111 c-56 -50 -50 -71 102 -365 74 -143 144 -272 157 -287 30
-35 64 -43 108 -24 33 13 43 29 122 195 48 99 90 180 94 180 4 0 40 -64 80
-142 114 -229 143 -261 213 -238 19 6 39 16 44 23 22 27 264 543 269 572 15
94 -98 150 -160 80 -12 -13 -56 -96 -97 -186 -42 -89 -80 -164 -85 -166 -6 -1
-50 75 -99 170 -49 94 -95 180 -103 189 -21 24 -69 32 -105 17 -26 -10 -43
-39 -121 -197 -82 -167 -92 -182 -105 -165 -7 10 -50 89 -94 176 -62 123 -87
163 -111 178 -44 26 -71 24 -109 -10z"/>
<path d="M4347 1399 c-25 -15 -47 -70 -40 -100 15 -61 85 -94 140 -65 59 30
67 115 16 156 -28 22 -86 26 -116 9z"/>
</g>
</svg>
